<mxfile modified="2021-02-11T12:12:51.114Z" host="app.diagrams.net" agent="5.0 (Macintosh; Intel Mac OS X 10_15_7) AppleWebKit/605.1.15 (KHTML, like Gecko) Version/14.1 Safari/605.1.15" etag="0sGojEWn8zFw13ThnNxi" version="14.3.0" type="github">
  <diagram id="C2fSY1v2SiZeoUbDoYyL" name="Page-1">
    <mxGraphModel dx="1895" dy="1278" grid="1" gridSize="10" guides="1" tooltips="1" connect="1" arrows="1" fold="1" page="1" pageScale="1" pageWidth="1169" pageHeight="827" math="0" shadow="0">
      <root>
        <mxCell id="0" />
        <mxCell id="1" parent="0" />
        <mxCell id="3ne1QswCM8ZiEu4GHsYG-31" value="Gym&amp;nbsp;Fellow" style="text;html=1;strokeColor=none;fillColor=none;align=center;verticalAlign=middle;whiteSpace=wrap;rounded=0;fontStyle=1;fontSize=20;fontColor=#4D4D4D;" parent="1" vertex="1">
          <mxGeometry x="189.5" y="50" width="790" height="30" as="geometry" />
        </mxCell>
        <mxCell id="3ne1QswCM8ZiEu4GHsYG-32" value="" style="line;strokeWidth=2;html=1;fontSize=20;fontColor=#4D4D4D;" parent="1" vertex="1">
          <mxGeometry x="103.5" y="80" width="960" height="10" as="geometry" />
        </mxCell>
        <mxCell id="i4m1nYn9i5p7TUg-GHl9-7" value="" style="edgeStyle=orthogonalEdgeStyle;rounded=0;orthogonalLoop=1;jettySize=auto;html=1;" edge="1" parent="1" source="i4m1nYn9i5p7TUg-GHl9-1" target="i4m1nYn9i5p7TUg-GHl9-2">
          <mxGeometry relative="1" as="geometry" />
        </mxCell>
        <mxCell id="i4m1nYn9i5p7TUg-GHl9-8" value="/start" style="edgeLabel;html=1;align=center;verticalAlign=middle;resizable=0;points=[];" vertex="1" connectable="0" parent="i4m1nYn9i5p7TUg-GHl9-7">
          <mxGeometry x="0.2828" y="-2" relative="1" as="geometry">
            <mxPoint as="offset" />
          </mxGeometry>
        </mxCell>
        <mxCell id="i4m1nYn9i5p7TUg-GHl9-1" value="User" style="html=1;verticalLabelPosition=bottom;align=center;labelBackgroundColor=#ffffff;verticalAlign=top;strokeWidth=2;strokeColor=#0080F0;shadow=0;dashed=0;shape=mxgraph.ios7.icons.user;" vertex="1" parent="1">
          <mxGeometry x="50" y="160" width="30" height="30" as="geometry" />
        </mxCell>
        <mxCell id="i4m1nYn9i5p7TUg-GHl9-10" value="" style="edgeStyle=orthogonalEdgeStyle;rounded=0;orthogonalLoop=1;jettySize=auto;html=1;" edge="1" parent="1" source="i4m1nYn9i5p7TUg-GHl9-2" target="i4m1nYn9i5p7TUg-GHl9-9">
          <mxGeometry relative="1" as="geometry" />
        </mxCell>
        <mxCell id="i4m1nYn9i5p7TUg-GHl9-2" value="Bot" style="html=1;verticalLabelPosition=bottom;align=center;labelBackgroundColor=#ffffff;verticalAlign=top;strokeWidth=2;strokeColor=#0080F0;shadow=0;dashed=0;shape=mxgraph.ios7.icons.eye;" vertex="1" parent="1">
          <mxGeometry x="180" y="167.95" width="30" height="14.1" as="geometry" />
        </mxCell>
        <mxCell id="i4m1nYn9i5p7TUg-GHl9-12" value="" style="edgeStyle=orthogonalEdgeStyle;rounded=0;orthogonalLoop=1;jettySize=auto;html=1;" edge="1" parent="1" source="i4m1nYn9i5p7TUg-GHl9-9" target="i4m1nYn9i5p7TUg-GHl9-11">
          <mxGeometry relative="1" as="geometry" />
        </mxCell>
        <mxCell id="i4m1nYn9i5p7TUg-GHl9-13" value="Сохраняем" style="edgeLabel;html=1;align=center;verticalAlign=middle;resizable=0;points=[];" vertex="1" connectable="0" parent="i4m1nYn9i5p7TUg-GHl9-12">
          <mxGeometry x="0.0173" y="1" relative="1" as="geometry">
            <mxPoint as="offset" />
          </mxGeometry>
        </mxCell>
        <mxCell id="i4m1nYn9i5p7TUg-GHl9-9" value="&amp;nbsp;Регистрация&lt;br&gt;— логин телеги&lt;br&gt;— спрашиваем номер телефона&lt;br&gt;—&amp;nbsp;спрашиваем&amp;nbsp;имя" style="whiteSpace=wrap;html=1;shadow=0;dashed=0;verticalAlign=top;strokeWidth=2;labelBackgroundColor=#ffffff;strokeColor=#10F000;" vertex="1" parent="1">
          <mxGeometry x="260" y="140" width="245" height="75" as="geometry" />
        </mxCell>
        <mxCell id="i4m1nYn9i5p7TUg-GHl9-11" value="БД" style="shape=cylinder;whiteSpace=wrap;html=1;boundedLbl=1;backgroundOutline=1;shadow=0;dashed=0;verticalAlign=top;strokeColor=#0080F0;strokeWidth=2;labelBackgroundColor=#ffffff;" vertex="1" parent="1">
          <mxGeometry x="640" y="137.5" width="60" height="80" as="geometry" />
        </mxCell>
        <mxCell id="i4m1nYn9i5p7TUg-GHl9-14" value="" style="edgeStyle=orthogonalEdgeStyle;rounded=0;orthogonalLoop=1;jettySize=auto;html=1;" edge="1" parent="1" source="i4m1nYn9i5p7TUg-GHl9-16" target="i4m1nYn9i5p7TUg-GHl9-17">
          <mxGeometry relative="1" as="geometry" />
        </mxCell>
        <mxCell id="i4m1nYn9i5p7TUg-GHl9-15" value="/balance" style="edgeLabel;html=1;align=center;verticalAlign=middle;resizable=0;points=[];" vertex="1" connectable="0" parent="i4m1nYn9i5p7TUg-GHl9-14">
          <mxGeometry x="0.2828" y="-2" relative="1" as="geometry">
            <mxPoint as="offset" />
          </mxGeometry>
        </mxCell>
        <mxCell id="i4m1nYn9i5p7TUg-GHl9-16" value="User" style="html=1;verticalLabelPosition=bottom;align=center;labelBackgroundColor=#ffffff;verticalAlign=top;strokeWidth=2;strokeColor=#0080F0;shadow=0;dashed=0;shape=mxgraph.ios7.icons.user;" vertex="1" parent="1">
          <mxGeometry x="40" y="275" width="30" height="30" as="geometry" />
        </mxCell>
        <mxCell id="i4m1nYn9i5p7TUg-GHl9-19" value="" style="edgeStyle=orthogonalEdgeStyle;rounded=0;orthogonalLoop=1;jettySize=auto;html=1;" edge="1" parent="1" source="i4m1nYn9i5p7TUg-GHl9-17" target="i4m1nYn9i5p7TUg-GHl9-18">
          <mxGeometry relative="1" as="geometry" />
        </mxCell>
        <mxCell id="i4m1nYn9i5p7TUg-GHl9-17" value="Bot" style="html=1;verticalLabelPosition=bottom;align=center;labelBackgroundColor=#ffffff;verticalAlign=top;strokeWidth=2;strokeColor=#0080F0;shadow=0;dashed=0;shape=mxgraph.ios7.icons.eye;" vertex="1" parent="1">
          <mxGeometry x="190" y="282.95" width="30" height="14.1" as="geometry" />
        </mxCell>
        <mxCell id="i4m1nYn9i5p7TUg-GHl9-18" value="Отображаем количество тренировок" style="whiteSpace=wrap;html=1;shadow=0;dashed=0;verticalAlign=top;strokeColor=#0080F0;strokeWidth=2;labelBackgroundColor=#ffffff;" vertex="1" parent="1">
          <mxGeometry x="310" y="345" width="120" height="60" as="geometry" />
        </mxCell>
        <mxCell id="i4m1nYn9i5p7TUg-GHl9-21" style="edgeStyle=orthogonalEdgeStyle;rounded=0;orthogonalLoop=1;jettySize=auto;html=1;" edge="1" parent="1" source="i4m1nYn9i5p7TUg-GHl9-20">
          <mxGeometry relative="1" as="geometry">
            <mxPoint x="370" y="345" as="targetPoint" />
          </mxGeometry>
        </mxCell>
        <mxCell id="i4m1nYn9i5p7TUg-GHl9-22" value="Получаем информацию о пользователе" style="edgeLabel;html=1;align=center;verticalAlign=middle;resizable=0;points=[];" vertex="1" connectable="0" parent="i4m1nYn9i5p7TUg-GHl9-21">
          <mxGeometry x="-0.5712" y="1" relative="1" as="geometry">
            <mxPoint x="-58.33" y="-1" as="offset" />
          </mxGeometry>
        </mxCell>
        <mxCell id="i4m1nYn9i5p7TUg-GHl9-20" value="БД" style="shape=cylinder;whiteSpace=wrap;html=1;boundedLbl=1;backgroundOutline=1;shadow=0;dashed=0;verticalAlign=top;strokeColor=#0080F0;strokeWidth=2;labelBackgroundColor=#ffffff;" vertex="1" parent="1">
          <mxGeometry x="650" y="250" width="60" height="80" as="geometry" />
        </mxCell>
        <mxCell id="i4m1nYn9i5p7TUg-GHl9-32" value="" style="edgeStyle=orthogonalEdgeStyle;rounded=0;orthogonalLoop=1;jettySize=auto;html=1;" edge="1" parent="1" source="i4m1nYn9i5p7TUg-GHl9-34" target="i4m1nYn9i5p7TUg-GHl9-36">
          <mxGeometry relative="1" as="geometry" />
        </mxCell>
        <mxCell id="i4m1nYn9i5p7TUg-GHl9-33" value="/today" style="edgeLabel;html=1;align=center;verticalAlign=middle;resizable=0;points=[];" vertex="1" connectable="0" parent="i4m1nYn9i5p7TUg-GHl9-32">
          <mxGeometry x="0.2828" y="-2" relative="1" as="geometry">
            <mxPoint as="offset" />
          </mxGeometry>
        </mxCell>
        <mxCell id="i4m1nYn9i5p7TUg-GHl9-34" value="Admin" style="html=1;verticalLabelPosition=bottom;align=center;labelBackgroundColor=#ffffff;verticalAlign=top;strokeWidth=2;shadow=0;dashed=0;shape=mxgraph.ios7.icons.user;strokeColor=#10F000;" vertex="1" parent="1">
          <mxGeometry x="790" y="162.5" width="30" height="30" as="geometry" />
        </mxCell>
        <mxCell id="i4m1nYn9i5p7TUg-GHl9-35" value="" style="edgeStyle=orthogonalEdgeStyle;rounded=0;orthogonalLoop=1;jettySize=auto;html=1;" edge="1" parent="1" source="i4m1nYn9i5p7TUg-GHl9-36" target="i4m1nYn9i5p7TUg-GHl9-37">
          <mxGeometry relative="1" as="geometry" />
        </mxCell>
        <mxCell id="i4m1nYn9i5p7TUg-GHl9-36" value="Bot" style="html=1;verticalLabelPosition=bottom;align=center;labelBackgroundColor=#ffffff;verticalAlign=top;strokeWidth=2;strokeColor=#0080F0;shadow=0;dashed=0;shape=mxgraph.ios7.icons.eye;" vertex="1" parent="1">
          <mxGeometry x="940" y="170.45" width="30" height="14.1" as="geometry" />
        </mxCell>
        <mxCell id="i4m1nYn9i5p7TUg-GHl9-37" value="Отображаем тренировки и людей" style="whiteSpace=wrap;html=1;shadow=0;dashed=0;verticalAlign=top;strokeColor=#0080F0;strokeWidth=2;labelBackgroundColor=#ffffff;" vertex="1" parent="1">
          <mxGeometry x="1060" y="232.5" width="120" height="60" as="geometry" />
        </mxCell>
        <mxCell id="i4m1nYn9i5p7TUg-GHl9-38" style="edgeStyle=orthogonalEdgeStyle;rounded=0;orthogonalLoop=1;jettySize=auto;html=1;" edge="1" parent="1" source="i4m1nYn9i5p7TUg-GHl9-40">
          <mxGeometry relative="1" as="geometry">
            <mxPoint x="1120" y="232.5" as="targetPoint" />
          </mxGeometry>
        </mxCell>
        <mxCell id="i4m1nYn9i5p7TUg-GHl9-39" value="Получаем информацию о тренировках сегодня" style="edgeLabel;html=1;align=center;verticalAlign=middle;resizable=0;points=[];" vertex="1" connectable="0" parent="i4m1nYn9i5p7TUg-GHl9-38">
          <mxGeometry x="-0.5712" y="1" relative="1" as="geometry">
            <mxPoint x="-68" y="-0.99" as="offset" />
          </mxGeometry>
        </mxCell>
        <mxCell id="i4m1nYn9i5p7TUg-GHl9-40" value="БД" style="shape=cylinder;whiteSpace=wrap;html=1;boundedLbl=1;backgroundOutline=1;shadow=0;dashed=0;verticalAlign=top;strokeColor=#0080F0;strokeWidth=2;labelBackgroundColor=#ffffff;" vertex="1" parent="1">
          <mxGeometry x="1400" y="137.5" width="60" height="80" as="geometry" />
        </mxCell>
        <mxCell id="i4m1nYn9i5p7TUg-GHl9-41" value="" style="edgeStyle=orthogonalEdgeStyle;rounded=0;orthogonalLoop=1;jettySize=auto;html=1;" edge="1" parent="1" source="i4m1nYn9i5p7TUg-GHl9-43" target="i4m1nYn9i5p7TUg-GHl9-45">
          <mxGeometry relative="1" as="geometry" />
        </mxCell>
        <mxCell id="i4m1nYn9i5p7TUg-GHl9-42" value="/update_balance" style="edgeLabel;html=1;align=center;verticalAlign=middle;resizable=0;points=[];" vertex="1" connectable="0" parent="i4m1nYn9i5p7TUg-GHl9-41">
          <mxGeometry x="0.2828" y="-2" relative="1" as="geometry">
            <mxPoint x="-22.07" y="-2.02" as="offset" />
          </mxGeometry>
        </mxCell>
        <mxCell id="i4m1nYn9i5p7TUg-GHl9-43" value="Admin" style="html=1;verticalLabelPosition=bottom;align=center;labelBackgroundColor=#ffffff;verticalAlign=top;strokeWidth=2;shadow=0;dashed=0;shape=mxgraph.ios7.icons.user;strokeColor=#10F000;" vertex="1" parent="1">
          <mxGeometry x="790" y="360" width="30" height="30" as="geometry" />
        </mxCell>
        <mxCell id="i4m1nYn9i5p7TUg-GHl9-52" value="" style="edgeStyle=orthogonalEdgeStyle;rounded=0;orthogonalLoop=1;jettySize=auto;html=1;" edge="1" parent="1" source="i4m1nYn9i5p7TUg-GHl9-45" target="i4m1nYn9i5p7TUg-GHl9-51">
          <mxGeometry relative="1" as="geometry" />
        </mxCell>
        <mxCell id="i4m1nYn9i5p7TUg-GHl9-45" value="Bot" style="html=1;verticalLabelPosition=bottom;align=center;labelBackgroundColor=#ffffff;verticalAlign=top;strokeWidth=2;strokeColor=#0080F0;shadow=0;dashed=0;shape=mxgraph.ios7.icons.eye;" vertex="1" parent="1">
          <mxGeometry x="979.5" y="367.95" width="30" height="14.1" as="geometry" />
        </mxCell>
        <mxCell id="i4m1nYn9i5p7TUg-GHl9-55" style="edgeStyle=orthogonalEdgeStyle;rounded=0;orthogonalLoop=1;jettySize=auto;html=1;entryX=0.5;entryY=0;entryDx=0;entryDy=0;exitX=0;exitY=0.7;exitDx=0;exitDy=0;" edge="1" parent="1" source="i4m1nYn9i5p7TUg-GHl9-49" target="i4m1nYn9i5p7TUg-GHl9-53">
          <mxGeometry relative="1" as="geometry">
            <mxPoint x="1400" y="375.01724137931035" as="sourcePoint" />
            <Array as="points">
              <mxPoint x="1400" y="375" />
              <mxPoint x="1310" y="375" />
            </Array>
          </mxGeometry>
        </mxCell>
        <mxCell id="i4m1nYn9i5p7TUg-GHl9-49" value="БД" style="shape=cylinder;whiteSpace=wrap;html=1;boundedLbl=1;backgroundOutline=1;shadow=0;dashed=0;verticalAlign=top;strokeColor=#0080F0;strokeWidth=2;labelBackgroundColor=#ffffff;" vertex="1" parent="1">
          <mxGeometry x="1400" y="335" width="60" height="80" as="geometry" />
        </mxCell>
        <mxCell id="i4m1nYn9i5p7TUg-GHl9-54" value="" style="edgeStyle=orthogonalEdgeStyle;rounded=0;orthogonalLoop=1;jettySize=auto;html=1;" edge="1" parent="1" source="i4m1nYn9i5p7TUg-GHl9-51" target="i4m1nYn9i5p7TUg-GHl9-53">
          <mxGeometry relative="1" as="geometry" />
        </mxCell>
        <mxCell id="i4m1nYn9i5p7TUg-GHl9-51" value="Уточняем пользователя" style="whiteSpace=wrap;html=1;shadow=0;dashed=0;verticalAlign=top;strokeWidth=2;labelBackgroundColor=#ffffff;strokeColor=#10F000;" vertex="1" parent="1">
          <mxGeometry x="1070" y="345" width="120" height="60" as="geometry" />
        </mxCell>
        <mxCell id="i4m1nYn9i5p7TUg-GHl9-57" style="edgeStyle=orthogonalEdgeStyle;rounded=0;orthogonalLoop=1;jettySize=auto;html=1;entryX=0.5;entryY=0;entryDx=0;entryDy=0;" edge="1" parent="1" source="i4m1nYn9i5p7TUg-GHl9-53" target="i4m1nYn9i5p7TUg-GHl9-56">
          <mxGeometry relative="1" as="geometry" />
        </mxCell>
        <mxCell id="i4m1nYn9i5p7TUg-GHl9-59" style="edgeStyle=orthogonalEdgeStyle;rounded=0;orthogonalLoop=1;jettySize=auto;html=1;entryX=0.5;entryY=0;entryDx=0;entryDy=0;" edge="1" parent="1" source="i4m1nYn9i5p7TUg-GHl9-53" target="i4m1nYn9i5p7TUg-GHl9-58">
          <mxGeometry relative="1" as="geometry" />
        </mxCell>
        <mxCell id="i4m1nYn9i5p7TUg-GHl9-53" value="Показываем текущий баланс и спрашиваем что сделать?" style="whiteSpace=wrap;html=1;shadow=0;dashed=0;verticalAlign=top;strokeWidth=2;labelBackgroundColor=#ffffff;strokeColor=#10F000;" vertex="1" parent="1">
          <mxGeometry x="1230" y="460" width="160" height="60" as="geometry" />
        </mxCell>
        <mxCell id="i4m1nYn9i5p7TUg-GHl9-61" style="edgeStyle=orthogonalEdgeStyle;rounded=0;orthogonalLoop=1;jettySize=auto;html=1;entryX=0.5;entryY=0;entryDx=0;entryDy=0;" edge="1" parent="1" source="i4m1nYn9i5p7TUg-GHl9-56" target="i4m1nYn9i5p7TUg-GHl9-60">
          <mxGeometry relative="1" as="geometry" />
        </mxCell>
        <mxCell id="i4m1nYn9i5p7TUg-GHl9-56" value="Увеличить количество тренировок" style="whiteSpace=wrap;html=1;shadow=0;dashed=0;verticalAlign=top;strokeColor=#0080F0;strokeWidth=2;labelBackgroundColor=#ffffff;" vertex="1" parent="1">
          <mxGeometry x="1160" y="560" width="160" height="50" as="geometry" />
        </mxCell>
        <mxCell id="i4m1nYn9i5p7TUg-GHl9-62" style="edgeStyle=orthogonalEdgeStyle;rounded=0;orthogonalLoop=1;jettySize=auto;html=1;entryX=0.5;entryY=0;entryDx=0;entryDy=0;" edge="1" parent="1" source="i4m1nYn9i5p7TUg-GHl9-58" target="i4m1nYn9i5p7TUg-GHl9-60">
          <mxGeometry relative="1" as="geometry" />
        </mxCell>
        <mxCell id="i4m1nYn9i5p7TUg-GHl9-58" value="Уменьшить количество тренировок" style="whiteSpace=wrap;html=1;shadow=0;dashed=0;verticalAlign=top;strokeColor=#0080F0;strokeWidth=2;labelBackgroundColor=#ffffff;" vertex="1" parent="1">
          <mxGeometry x="1360" y="560" width="160" height="50" as="geometry" />
        </mxCell>
        <mxCell id="i4m1nYn9i5p7TUg-GHl9-64" style="edgeStyle=orthogonalEdgeStyle;rounded=0;orthogonalLoop=1;jettySize=auto;html=1;" edge="1" parent="1" source="i4m1nYn9i5p7TUg-GHl9-60" target="i4m1nYn9i5p7TUg-GHl9-63">
          <mxGeometry relative="1" as="geometry">
            <Array as="points">
              <mxPoint x="1340" y="720" />
            </Array>
          </mxGeometry>
        </mxCell>
        <mxCell id="i4m1nYn9i5p7TUg-GHl9-65" value="Сохраняем новое количество" style="edgeLabel;html=1;align=center;verticalAlign=middle;resizable=0;points=[];" vertex="1" connectable="0" parent="i4m1nYn9i5p7TUg-GHl9-64">
          <mxGeometry x="-0.3449" y="2" relative="1" as="geometry">
            <mxPoint x="0.8300000000000001" y="2" as="offset" />
          </mxGeometry>
        </mxCell>
        <mxCell id="i4m1nYn9i5p7TUg-GHl9-60" value="На сколько?" style="whiteSpace=wrap;html=1;shadow=0;dashed=0;verticalAlign=top;strokeWidth=2;labelBackgroundColor=#ffffff;strokeColor=#10F000;" vertex="1" parent="1">
          <mxGeometry x="1260" y="650" width="160" height="30" as="geometry" />
        </mxCell>
        <mxCell id="i4m1nYn9i5p7TUg-GHl9-63" value="БД" style="shape=cylinder;whiteSpace=wrap;html=1;boundedLbl=1;backgroundOutline=1;shadow=0;dashed=0;verticalAlign=top;strokeColor=#0080F0;strokeWidth=2;labelBackgroundColor=#ffffff;" vertex="1" parent="1">
          <mxGeometry x="1480" y="680" width="60" height="80" as="geometry" />
        </mxCell>
        <mxCell id="i4m1nYn9i5p7TUg-GHl9-66" value="" style="edgeStyle=orthogonalEdgeStyle;rounded=0;orthogonalLoop=1;jettySize=auto;html=1;" edge="1" parent="1" source="i4m1nYn9i5p7TUg-GHl9-68" target="i4m1nYn9i5p7TUg-GHl9-70">
          <mxGeometry relative="1" as="geometry" />
        </mxCell>
        <mxCell id="i4m1nYn9i5p7TUg-GHl9-67" value="/schedule" style="edgeLabel;html=1;align=center;verticalAlign=middle;resizable=0;points=[];" vertex="1" connectable="0" parent="i4m1nYn9i5p7TUg-GHl9-66">
          <mxGeometry x="0.2828" y="-2" relative="1" as="geometry">
            <mxPoint as="offset" />
          </mxGeometry>
        </mxCell>
        <mxCell id="i4m1nYn9i5p7TUg-GHl9-68" value="User" style="html=1;verticalLabelPosition=bottom;align=center;labelBackgroundColor=#ffffff;verticalAlign=top;strokeWidth=2;strokeColor=#0080F0;shadow=0;dashed=0;shape=mxgraph.ios7.icons.user;" vertex="1" parent="1">
          <mxGeometry x="40" y="430" width="30" height="30" as="geometry" />
        </mxCell>
        <mxCell id="i4m1nYn9i5p7TUg-GHl9-69" value="" style="edgeStyle=orthogonalEdgeStyle;rounded=0;orthogonalLoop=1;jettySize=auto;html=1;" edge="1" parent="1" source="i4m1nYn9i5p7TUg-GHl9-70" target="i4m1nYn9i5p7TUg-GHl9-71">
          <mxGeometry relative="1" as="geometry" />
        </mxCell>
        <mxCell id="i4m1nYn9i5p7TUg-GHl9-70" value="Bot" style="html=1;verticalLabelPosition=bottom;align=center;labelBackgroundColor=#ffffff;verticalAlign=top;strokeWidth=2;strokeColor=#0080F0;shadow=0;dashed=0;shape=mxgraph.ios7.icons.eye;" vertex="1" parent="1">
          <mxGeometry x="190" y="437.95" width="30" height="14.1" as="geometry" />
        </mxCell>
        <mxCell id="i4m1nYn9i5p7TUg-GHl9-76" style="edgeStyle=orthogonalEdgeStyle;rounded=0;orthogonalLoop=1;jettySize=auto;html=1;entryX=0.5;entryY=0;entryDx=0;entryDy=0;" edge="1" parent="1" source="i4m1nYn9i5p7TUg-GHl9-71" target="i4m1nYn9i5p7TUg-GHl9-75">
          <mxGeometry relative="1" as="geometry" />
        </mxCell>
        <mxCell id="i4m1nYn9i5p7TUg-GHl9-71" value="Предлагаем варианты" style="whiteSpace=wrap;html=1;shadow=0;dashed=0;verticalAlign=top;strokeColor=#0080F0;strokeWidth=2;labelBackgroundColor=#ffffff;" vertex="1" parent="1">
          <mxGeometry x="310" y="500" width="120" height="40" as="geometry" />
        </mxCell>
        <mxCell id="i4m1nYn9i5p7TUg-GHl9-72" style="edgeStyle=orthogonalEdgeStyle;rounded=0;orthogonalLoop=1;jettySize=auto;html=1;" edge="1" parent="1" source="i4m1nYn9i5p7TUg-GHl9-74">
          <mxGeometry relative="1" as="geometry">
            <mxPoint x="370" y="500" as="targetPoint" />
          </mxGeometry>
        </mxCell>
        <mxCell id="i4m1nYn9i5p7TUg-GHl9-73" value="Получаем информацию о свободном времени" style="edgeLabel;html=1;align=center;verticalAlign=middle;resizable=0;points=[];" vertex="1" connectable="0" parent="i4m1nYn9i5p7TUg-GHl9-72">
          <mxGeometry x="-0.5712" y="1" relative="1" as="geometry">
            <mxPoint x="-58.33" y="-1" as="offset" />
          </mxGeometry>
        </mxCell>
        <mxCell id="i4m1nYn9i5p7TUg-GHl9-74" value="БД" style="shape=cylinder;whiteSpace=wrap;html=1;boundedLbl=1;backgroundOutline=1;shadow=0;dashed=0;verticalAlign=top;strokeColor=#0080F0;strokeWidth=2;labelBackgroundColor=#ffffff;" vertex="1" parent="1">
          <mxGeometry x="650" y="405" width="60" height="80" as="geometry" />
        </mxCell>
        <mxCell id="i4m1nYn9i5p7TUg-GHl9-78" style="edgeStyle=orthogonalEdgeStyle;rounded=0;orthogonalLoop=1;jettySize=auto;html=1;entryX=0.064;entryY=0.575;entryDx=0;entryDy=0;entryPerimeter=0;" edge="1" parent="1" target="i4m1nYn9i5p7TUg-GHl9-77">
          <mxGeometry relative="1" as="geometry">
            <mxPoint x="370" y="670" as="sourcePoint" />
          </mxGeometry>
        </mxCell>
        <mxCell id="i4m1nYn9i5p7TUg-GHl9-79" value="Пишем в календарь" style="edgeLabel;html=1;align=center;verticalAlign=middle;resizable=0;points=[];" vertex="1" connectable="0" parent="i4m1nYn9i5p7TUg-GHl9-78">
          <mxGeometry x="-0.1052" y="-3" relative="1" as="geometry">
            <mxPoint y="-8" as="offset" />
          </mxGeometry>
        </mxCell>
        <mxCell id="i4m1nYn9i5p7TUg-GHl9-81" style="edgeStyle=orthogonalEdgeStyle;rounded=0;orthogonalLoop=1;jettySize=auto;html=1;entryX=-0.031;entryY=0.734;entryDx=0;entryDy=0;entryPerimeter=0;" edge="1" parent="1" source="i4m1nYn9i5p7TUg-GHl9-75" target="i4m1nYn9i5p7TUg-GHl9-80">
          <mxGeometry relative="1" as="geometry">
            <Array as="points">
              <mxPoint x="370" y="700" />
              <mxPoint x="379" y="700" />
            </Array>
          </mxGeometry>
        </mxCell>
        <mxCell id="i4m1nYn9i5p7TUg-GHl9-75" value="Пользователь выбрал время" style="whiteSpace=wrap;html=1;shadow=0;dashed=0;verticalAlign=top;strokeWidth=2;labelBackgroundColor=#ffffff;strokeColor=#10F000;" vertex="1" parent="1">
          <mxGeometry x="310" y="590" width="120" height="60" as="geometry" />
        </mxCell>
        <mxCell id="i4m1nYn9i5p7TUg-GHl9-77" value="Календаоь" style="html=1;verticalLabelPosition=bottom;align=center;labelBackgroundColor=#ffffff;verticalAlign=top;strokeWidth=2;strokeColor=#0080F0;shadow=0;dashed=0;shape=mxgraph.ios7.icons.keypad;" vertex="1" parent="1">
          <mxGeometry x="650" y="580" width="59" height="60" as="geometry" />
        </mxCell>
        <mxCell id="i4m1nYn9i5p7TUg-GHl9-83" style="edgeStyle=orthogonalEdgeStyle;rounded=0;orthogonalLoop=1;jettySize=auto;html=1;entryX=0.047;entryY=0.522;entryDx=0;entryDy=0;entryPerimeter=0;" edge="1" parent="1" source="i4m1nYn9i5p7TUg-GHl9-80" target="i4m1nYn9i5p7TUg-GHl9-82">
          <mxGeometry relative="1" as="geometry" />
        </mxCell>
        <mxCell id="i4m1nYn9i5p7TUg-GHl9-84" value="Радуем тренера" style="edgeLabel;html=1;align=center;verticalAlign=middle;resizable=0;points=[];" vertex="1" connectable="0" parent="i4m1nYn9i5p7TUg-GHl9-83">
          <mxGeometry x="-0.0403" y="2" relative="1" as="geometry">
            <mxPoint as="offset" />
          </mxGeometry>
        </mxCell>
        <mxCell id="i4m1nYn9i5p7TUg-GHl9-80" value="Bot" style="html=1;verticalLabelPosition=bottom;align=center;labelBackgroundColor=#ffffff;verticalAlign=top;strokeWidth=2;strokeColor=#0080F0;shadow=0;dashed=0;shape=mxgraph.ios7.icons.eye;" vertex="1" parent="1">
          <mxGeometry x="380" y="695.9" width="30" height="14.1" as="geometry" />
        </mxCell>
        <mxCell id="i4m1nYn9i5p7TUg-GHl9-86" style="edgeStyle=orthogonalEdgeStyle;rounded=0;orthogonalLoop=1;jettySize=auto;html=1;entryX=0;entryY=0.5;entryDx=0;entryDy=0;" edge="1" parent="1" source="i4m1nYn9i5p7TUg-GHl9-82" target="i4m1nYn9i5p7TUg-GHl9-85">
          <mxGeometry relative="1" as="geometry" />
        </mxCell>
        <mxCell id="i4m1nYn9i5p7TUg-GHl9-91" style="edgeStyle=orthogonalEdgeStyle;rounded=0;orthogonalLoop=1;jettySize=auto;html=1;entryX=0;entryY=0.5;entryDx=0;entryDy=0;" edge="1" parent="1" source="i4m1nYn9i5p7TUg-GHl9-82" target="i4m1nYn9i5p7TUg-GHl9-89">
          <mxGeometry relative="1" as="geometry" />
        </mxCell>
        <mxCell id="i4m1nYn9i5p7TUg-GHl9-82" value="Admin" style="html=1;verticalLabelPosition=bottom;align=center;labelBackgroundColor=#ffffff;verticalAlign=top;strokeWidth=2;shadow=0;dashed=0;shape=mxgraph.ios7.icons.user;strokeColor=#10F000;" vertex="1" parent="1">
          <mxGeometry x="540" y="687.95" width="30" height="30" as="geometry" />
        </mxCell>
        <mxCell id="i4m1nYn9i5p7TUg-GHl9-87" style="edgeStyle=orthogonalEdgeStyle;rounded=0;orthogonalLoop=1;jettySize=auto;html=1;entryX=1.001;entryY=0.476;entryDx=0;entryDy=0;entryPerimeter=0;" edge="1" parent="1" source="i4m1nYn9i5p7TUg-GHl9-85" target="i4m1nYn9i5p7TUg-GHl9-77">
          <mxGeometry relative="1" as="geometry">
            <Array as="points">
              <mxPoint x="740" y="703" />
              <mxPoint x="740" y="659" />
              <mxPoint x="870" y="659" />
              <mxPoint x="870" y="609" />
            </Array>
          </mxGeometry>
        </mxCell>
        <mxCell id="i4m1nYn9i5p7TUg-GHl9-88" value="Помечаем в календаре встречу как принятую" style="edgeLabel;html=1;align=center;verticalAlign=middle;resizable=0;points=[];" vertex="1" connectable="0" parent="i4m1nYn9i5p7TUg-GHl9-87">
          <mxGeometry x="0.1559" y="-1" relative="1" as="geometry">
            <mxPoint x="-1" y="-4.58" as="offset" />
          </mxGeometry>
        </mxCell>
        <mxCell id="i4m1nYn9i5p7TUg-GHl9-93" style="edgeStyle=orthogonalEdgeStyle;rounded=0;orthogonalLoop=1;jettySize=auto;html=1;entryX=-0.007;entryY=0.484;entryDx=0;entryDy=0;entryPerimeter=0;" edge="1" parent="1" source="i4m1nYn9i5p7TUg-GHl9-85" target="i4m1nYn9i5p7TUg-GHl9-92">
          <mxGeometry relative="1" as="geometry" />
        </mxCell>
        <mxCell id="i4m1nYn9i5p7TUg-GHl9-85" value="Тренер принимает встречу" style="whiteSpace=wrap;html=1;shadow=0;dashed=0;verticalAlign=top;strokeWidth=2;labelBackgroundColor=#ffffff;strokeColor=#10F000;" vertex="1" parent="1">
          <mxGeometry x="610" y="679.43" width="120" height="47.05" as="geometry" />
        </mxCell>
        <mxCell id="i4m1nYn9i5p7TUg-GHl9-89" value="Тренер &lt;b&gt;НЕ&lt;/b&gt; принимает встречу" style="whiteSpace=wrap;html=1;shadow=0;dashed=0;verticalAlign=top;strokeWidth=2;labelBackgroundColor=#ffffff;strokeColor=#10F000;" vertex="1" parent="1">
          <mxGeometry x="610" y="750.0000000000001" width="120" height="47.05" as="geometry" />
        </mxCell>
        <mxCell id="i4m1nYn9i5p7TUg-GHl9-95" style="edgeStyle=orthogonalEdgeStyle;rounded=0;orthogonalLoop=1;jettySize=auto;html=1;entryX=0.039;entryY=0.518;entryDx=0;entryDy=0;entryPerimeter=0;" edge="1" parent="1" source="i4m1nYn9i5p7TUg-GHl9-92" target="i4m1nYn9i5p7TUg-GHl9-94">
          <mxGeometry relative="1" as="geometry" />
        </mxCell>
        <mxCell id="i4m1nYn9i5p7TUg-GHl9-96" value="Радуем клиента" style="edgeLabel;html=1;align=center;verticalAlign=middle;resizable=0;points=[];" vertex="1" connectable="0" parent="i4m1nYn9i5p7TUg-GHl9-95">
          <mxGeometry x="-0.2072" y="-3" relative="1" as="geometry">
            <mxPoint as="offset" />
          </mxGeometry>
        </mxCell>
        <mxCell id="i4m1nYn9i5p7TUg-GHl9-92" value="Bot" style="html=1;verticalLabelPosition=bottom;align=center;labelBackgroundColor=#ffffff;verticalAlign=top;strokeWidth=2;strokeColor=#0080F0;shadow=0;dashed=0;shape=mxgraph.ios7.icons.eye;" vertex="1" parent="1">
          <mxGeometry x="810" y="695.9" width="30" height="14.1" as="geometry" />
        </mxCell>
        <mxCell id="i4m1nYn9i5p7TUg-GHl9-94" value="User" style="html=1;verticalLabelPosition=bottom;align=center;labelBackgroundColor=#ffffff;verticalAlign=top;strokeWidth=2;strokeColor=#0080F0;shadow=0;dashed=0;shape=mxgraph.ios7.icons.user;" vertex="1" parent="1">
          <mxGeometry x="1000" y="687.95" width="30" height="30" as="geometry" />
        </mxCell>
        <mxCell id="i4m1nYn9i5p7TUg-GHl9-99" value="" style="edgeStyle=orthogonalEdgeStyle;rounded=0;orthogonalLoop=1;jettySize=auto;html=1;" edge="1" parent="1" source="i4m1nYn9i5p7TUg-GHl9-97" target="i4m1nYn9i5p7TUg-GHl9-98">
          <mxGeometry relative="1" as="geometry" />
        </mxCell>
        <mxCell id="i4m1nYn9i5p7TUg-GHl9-97" value="Шайтан-машина" style="html=1;verticalLabelPosition=bottom;align=center;labelBackgroundColor=#ffffff;verticalAlign=top;strokeWidth=2;strokeColor=#0080F0;shadow=0;dashed=0;shape=mxgraph.ios7.icons.clock;" vertex="1" parent="1">
          <mxGeometry x="60" y="892.5" width="30" height="30" as="geometry" />
        </mxCell>
        <mxCell id="i4m1nYn9i5p7TUg-GHl9-103" style="edgeStyle=orthogonalEdgeStyle;rounded=0;orthogonalLoop=1;jettySize=auto;html=1;entryX=0.106;entryY=0.724;entryDx=0;entryDy=0;entryPerimeter=0;" edge="1" parent="1" source="i4m1nYn9i5p7TUg-GHl9-98" target="i4m1nYn9i5p7TUg-GHl9-102">
          <mxGeometry relative="1" as="geometry" />
        </mxCell>
        <mxCell id="i4m1nYn9i5p7TUg-GHl9-98" value="Раз в полчаса проверяет какие тренировки должны были пройти" style="whiteSpace=wrap;html=1;shadow=0;dashed=0;verticalAlign=top;strokeColor=#0080F0;strokeWidth=2;labelBackgroundColor=#ffffff;" vertex="1" parent="1">
          <mxGeometry x="210" y="870" width="120" height="75" as="geometry" />
        </mxCell>
        <mxCell id="i4m1nYn9i5p7TUg-GHl9-101" style="edgeStyle=orthogonalEdgeStyle;rounded=0;orthogonalLoop=1;jettySize=auto;html=1;entryX=0.5;entryY=0;entryDx=0;entryDy=0;" edge="1" parent="1" source="i4m1nYn9i5p7TUg-GHl9-100" target="i4m1nYn9i5p7TUg-GHl9-98">
          <mxGeometry relative="1" as="geometry" />
        </mxCell>
        <mxCell id="i4m1nYn9i5p7TUg-GHl9-100" value="Календаоь" style="html=1;verticalLabelPosition=bottom;align=center;labelBackgroundColor=#ffffff;verticalAlign=top;strokeWidth=2;strokeColor=#0080F0;shadow=0;dashed=0;shape=mxgraph.ios7.icons.keypad;" vertex="1" parent="1">
          <mxGeometry x="240.5" y="760" width="59" height="60" as="geometry" />
        </mxCell>
        <mxCell id="i4m1nYn9i5p7TUg-GHl9-105" value="" style="edgeStyle=orthogonalEdgeStyle;rounded=0;orthogonalLoop=1;jettySize=auto;html=1;" edge="1" parent="1" source="i4m1nYn9i5p7TUg-GHl9-102" target="i4m1nYn9i5p7TUg-GHl9-104">
          <mxGeometry relative="1" as="geometry" />
        </mxCell>
        <mxCell id="i4m1nYn9i5p7TUg-GHl9-102" value="Bot" style="html=1;verticalLabelPosition=bottom;align=center;labelBackgroundColor=#ffffff;verticalAlign=top;strokeWidth=2;strokeColor=#0080F0;shadow=0;dashed=0;shape=mxgraph.ios7.icons.eye;" vertex="1" parent="1">
          <mxGeometry x="380" y="892.5" width="30" height="14.1" as="geometry" />
        </mxCell>
        <mxCell id="i4m1nYn9i5p7TUg-GHl9-107" style="edgeStyle=orthogonalEdgeStyle;rounded=0;orthogonalLoop=1;jettySize=auto;html=1;" edge="1" parent="1" source="i4m1nYn9i5p7TUg-GHl9-104" target="i4m1nYn9i5p7TUg-GHl9-106">
          <mxGeometry relative="1" as="geometry" />
        </mxCell>
        <mxCell id="i4m1nYn9i5p7TUg-GHl9-104" value="Тренировка была?" style="whiteSpace=wrap;html=1;shadow=0;dashed=0;verticalAlign=top;strokeWidth=2;labelBackgroundColor=#ffffff;strokeColor=#10F000;" vertex="1" parent="1">
          <mxGeometry x="450" y="877.5" width="120" height="60" as="geometry" />
        </mxCell>
        <mxCell id="i4m1nYn9i5p7TUg-GHl9-109" value="Да" style="edgeStyle=orthogonalEdgeStyle;rounded=0;orthogonalLoop=1;jettySize=auto;html=1;entryX=0;entryY=0.5;entryDx=0;entryDy=0;" edge="1" parent="1" source="i4m1nYn9i5p7TUg-GHl9-106" target="i4m1nYn9i5p7TUg-GHl9-108">
          <mxGeometry relative="1" as="geometry" />
        </mxCell>
        <mxCell id="i4m1nYn9i5p7TUg-GHl9-113" style="edgeStyle=orthogonalEdgeStyle;rounded=0;orthogonalLoop=1;jettySize=auto;html=1;entryX=0.008;entryY=0.651;entryDx=0;entryDy=0;entryPerimeter=0;" edge="1" parent="1" target="i4m1nYn9i5p7TUg-GHl9-112">
          <mxGeometry relative="1" as="geometry">
            <mxPoint x="776" y="908" as="sourcePoint" />
            <Array as="points">
              <mxPoint x="776" y="920" />
              <mxPoint x="776" y="1020" />
            </Array>
          </mxGeometry>
        </mxCell>
        <mxCell id="i4m1nYn9i5p7TUg-GHl9-120" style="edgeStyle=orthogonalEdgeStyle;rounded=0;orthogonalLoop=1;jettySize=auto;html=1;entryX=0;entryY=0.5;entryDx=0;entryDy=0;" edge="1" parent="1" source="i4m1nYn9i5p7TUg-GHl9-106" target="i4m1nYn9i5p7TUg-GHl9-119">
          <mxGeometry relative="1" as="geometry" />
        </mxCell>
        <mxCell id="i4m1nYn9i5p7TUg-GHl9-121" value="Нет" style="edgeLabel;html=1;align=center;verticalAlign=middle;resizable=0;points=[];" vertex="1" connectable="0" parent="i4m1nYn9i5p7TUg-GHl9-120">
          <mxGeometry x="0.1285" y="2" relative="1" as="geometry">
            <mxPoint y="-1" as="offset" />
          </mxGeometry>
        </mxCell>
        <mxCell id="i4m1nYn9i5p7TUg-GHl9-106" value="Admin" style="html=1;verticalLabelPosition=bottom;align=center;labelBackgroundColor=#ffffff;verticalAlign=top;strokeWidth=2;shadow=0;dashed=0;shape=mxgraph.ios7.icons.user;strokeColor=#10F000;" vertex="1" parent="1">
          <mxGeometry x="640" y="892.5" width="30" height="30" as="geometry" />
        </mxCell>
        <mxCell id="i4m1nYn9i5p7TUg-GHl9-111" style="edgeStyle=orthogonalEdgeStyle;rounded=0;orthogonalLoop=1;jettySize=auto;html=1;entryX=0;entryY=0.5;entryDx=0;entryDy=0;" edge="1" parent="1" source="i4m1nYn9i5p7TUg-GHl9-108" target="i4m1nYn9i5p7TUg-GHl9-110">
          <mxGeometry relative="1" as="geometry" />
        </mxCell>
        <mxCell id="i4m1nYn9i5p7TUg-GHl9-108" value="Списываем 1 тренировку с баланса" style="whiteSpace=wrap;html=1;shadow=0;dashed=0;verticalAlign=top;strokeColor=#0080F0;strokeWidth=2;labelBackgroundColor=#ffffff;" vertex="1" parent="1">
          <mxGeometry x="837.5" y="885" width="120" height="50" as="geometry" />
        </mxCell>
        <mxCell id="i4m1nYn9i5p7TUg-GHl9-110" value="БД" style="shape=cylinder;whiteSpace=wrap;html=1;boundedLbl=1;backgroundOutline=1;shadow=0;dashed=0;verticalAlign=top;strokeColor=#0080F0;strokeWidth=2;labelBackgroundColor=#ffffff;" vertex="1" parent="1">
          <mxGeometry x="1042" y="870" width="60" height="80" as="geometry" />
        </mxCell>
        <mxCell id="i4m1nYn9i5p7TUg-GHl9-116" value="" style="edgeStyle=orthogonalEdgeStyle;rounded=0;orthogonalLoop=1;jettySize=auto;html=1;" edge="1" parent="1" source="i4m1nYn9i5p7TUg-GHl9-112" target="i4m1nYn9i5p7TUg-GHl9-115">
          <mxGeometry relative="1" as="geometry" />
        </mxCell>
        <mxCell id="i4m1nYn9i5p7TUg-GHl9-112" value="Bot" style="html=1;verticalLabelPosition=bottom;align=center;labelBackgroundColor=#ffffff;verticalAlign=top;strokeWidth=2;strokeColor=#0080F0;shadow=0;dashed=0;shape=mxgraph.ios7.icons.eye;" vertex="1" parent="1">
          <mxGeometry x="882.5" y="1010.45" width="30" height="14.1" as="geometry" />
        </mxCell>
        <mxCell id="i4m1nYn9i5p7TUg-GHl9-114" value="User" style="html=1;verticalLabelPosition=bottom;align=center;labelBackgroundColor=#ffffff;verticalAlign=top;strokeWidth=2;strokeColor=#0080F0;shadow=0;dashed=0;shape=mxgraph.ios7.icons.user;" vertex="1" parent="1">
          <mxGeometry x="1162.5" y="994.5500000000001" width="30" height="30" as="geometry" />
        </mxCell>
        <mxCell id="i4m1nYn9i5p7TUg-GHl9-117" style="edgeStyle=orthogonalEdgeStyle;rounded=0;orthogonalLoop=1;jettySize=auto;html=1;entryX=0.047;entryY=0.669;entryDx=0;entryDy=0;entryPerimeter=0;" edge="1" parent="1" source="i4m1nYn9i5p7TUg-GHl9-115" target="i4m1nYn9i5p7TUg-GHl9-114">
          <mxGeometry relative="1" as="geometry" />
        </mxCell>
        <mxCell id="i4m1nYn9i5p7TUg-GHl9-115" value="Как прошло?&lt;br&gt;Запишемся ещё разок?" style="whiteSpace=wrap;html=1;shadow=0;dashed=0;verticalAlign=top;strokeWidth=2;labelBackgroundColor=#ffffff;strokeColor=#10F000;" vertex="1" parent="1">
          <mxGeometry x="947.5" y="987.5" width="120" height="60" as="geometry" />
        </mxCell>
        <mxCell id="i4m1nYn9i5p7TUg-GHl9-123" style="edgeStyle=orthogonalEdgeStyle;rounded=0;orthogonalLoop=1;jettySize=auto;html=1;" edge="1" parent="1" source="i4m1nYn9i5p7TUg-GHl9-119" target="i4m1nYn9i5p7TUg-GHl9-122">
          <mxGeometry relative="1" as="geometry" />
        </mxCell>
        <mxCell id="i4m1nYn9i5p7TUg-GHl9-119" value="Помечаем пользователя как редиску" style="whiteSpace=wrap;html=1;shadow=0;dashed=0;verticalAlign=top;strokeColor=#0080F0;strokeWidth=2;labelBackgroundColor=#ffffff;" vertex="1" parent="1">
          <mxGeometry x="735" y="1100" width="120" height="50" as="geometry" />
        </mxCell>
        <mxCell id="i4m1nYn9i5p7TUg-GHl9-122" value="БД" style="shape=cylinder;whiteSpace=wrap;html=1;boundedLbl=1;backgroundOutline=1;shadow=0;dashed=0;verticalAlign=top;strokeColor=#0080F0;strokeWidth=2;labelBackgroundColor=#ffffff;" vertex="1" parent="1">
          <mxGeometry x="940" y="1085" width="60" height="80" as="geometry" />
        </mxCell>
      </root>
    </mxGraphModel>
  </diagram>
</mxfile>
